solid Creado por el grupo de Machine Learning
facet normal -0.041030101508 0.0028079308740000045 -0.025453127406000003
outer loop
vertex 0.272269 0.118712 0.520703
vertex 0.361372 0.268614 0.393607
vertex 0.510787 0.234322 0.148969
endloop
endfacet
facet normal -0.176758989044 0.012096244766000006 -0.109653014498
outer loop
vertex 0.272269 0.118712 0.520703
vertex 0.510787 0.234322 0.148969
vertex 0.587567 -0.188189 -0.021408
endloop
endfacet
facet normal -0.0028416485990000184 0.000194736625999975 -0.001762980247999979
outer loop
vertex 0.272269 0.118712 0.520703
vertex 0.587567 -0.188189 -0.021408
vertex 0.586233 -0.192482 -0.019732
endloop
endfacet
facet normal -0.176759245617 0.012096517188000006 -0.10965315599599999
outer loop
vertex 0.272269 0.118712 0.520703
vertex 0.586233 -0.192482 -0.019732
vertex 0.344233 -0.301871 0.358301
endloop
endfacet
facet normal -0.041030346553999994 0.002807963556000002 -0.025453440202
outer loop
vertex 0.272269 0.118712 0.520703
vertex 0.344233 -0.301871 0.358301
vertex 0.248355 -0.095223 0.535651
endloop
endfacet
facet normal -0.0009207057280000014 0.08020468414200001 -0.093952145432
outer loop
vertex 0.248355 -0.095223 0.535651
vertex 0.344233 -0.301871 0.358301
vertex 0.011612 -0.564879 0.137037
endloop
endfacet
facet normal -0.001310326870000017 0.11414205733000002 -0.133706521505
outer loop
vertex 0.248355 -0.095223 0.535651
vertex 0.011612 -0.564879 0.137037
vertex -0.246149 -0.511456 0.185169
endloop
endfacet
facet normal -0.0016474404430000048 0.143457506742 -0.16804595532700004
outer loop
vertex 0.248355 -0.095223 0.535651
vertex -0.246149 -0.511456 0.185169
vertex -0.361372 -0.268614 0.393608
endloop
endfacet
facet normal -0.0007445993590000049 0.064836795636 -0.075949638481
outer loop
vertex 0.248355 -0.095223 0.535651
vertex -0.361372 -0.268614 0.393608
vertex -0.272269 -0.118712 0.520703
endloop
endfacet
facet normal -0.0005309778960000027 0.04623574289999998 -0.054160525077
outer loop
vertex 0.248355 -0.095223 0.535651
vertex -0.272269 -0.118712 0.520703
vertex 0.000222 -0.002388 0.617335
endloop
endfacet
facet normal 0.00041554798199999396 -0.036174688998 -0.042375354053999996
outer loop
vertex -0.000222 0.002388 0.617335
vertex -0.248355 0.095223 0.535651
vertex -0.344233 0.301871 0.358301
endloop
endfacet
facet normal 0.001863207760000013 -0.162277398018 -0.19009198003100003
outer loop
vertex -0.000222 0.002388 0.617335
vertex -0.344233 0.301871 0.358301
vertex -0.011612 0.564879 0.137037
endloop
endfacet
facet normal 0.0014148567580000437 -0.123253869298 -0.14437975468100003
outer loop
vertex -0.000222 0.002388 0.617335
vertex -0.011612 0.564879 0.137037
vertex 0.246149 0.511456 0.185169
endloop
endfacet
facet normal 0.0011610600119999898 -0.10114854151599997 -0.11848556854600004
outer loop
vertex -0.000222 0.002388 0.617335
vertex 0.246149 0.511456 0.185169
vertex 0.361372 0.268614 0.393607
endloop
endfacet
facet normal 0.0002989850400000084 -0.026022315040000008 -0.030482128509999998
outer loop
vertex -0.000222 0.002388 0.617335
vertex 0.361372 0.268614 0.393607
vertex 0.272269 0.118712 0.520703
endloop
endfacet
facet normal 0.026295018453000002 -0.021540238352999994 0.06596738204599999
outer loop
vertex -0.509201 0.136702 -0.282307
vertex -0.394163 -0.151218 -0.422176
vertex -0.151548 -0.185001 -0.529915
endloop
endfacet
facet normal 0.09161545521600001 -0.07504899436800003 0.229839217794
outer loop
vertex -0.509201 0.136702 -0.282307
vertex -0.151548 -0.185001 -0.529915
vertex 0.151548 0.185001 -0.529915
endloop
endfacet
facet normal 0.06644794966100002 -0.054432390851000045 0.166700535705
outer loop
vertex -0.509201 0.136702 -0.282307
vertex 0.151548 0.185001 -0.529915
vertex 0.055686 0.430284 -0.411612
endloop
endfacet
facet normal 0.046416810526 -0.038023535056 0.11644737155400003
outer loop
vertex -0.509201 0.136702 -0.282307
vertex 0.055686 0.430284 -0.411612
vertex -0.179112 0.514398 -0.290554
endloop
endfacet
facet normal 0.014201614581999991 -0.011633616309999992 0.035628278154
outer loop
vertex -0.509201 0.136702 -0.282307
vertex -0.179112 0.514398 -0.290554
vertex -0.430396 0.334808 -0.249032
endloop
endfacet
facet normal -0.014201614581999991 0.011633616309999992 0.03562827815399999
outer loop
vertex 0.179112 -0.514398 -0.290554
vertex 0.430396 -0.334808 -0.249032
vertex 0.509201 -0.136702 -0.282307
endloop
endfacet
facet normal -0.05520243806400001 0.045220499955000014 0.138488617328
outer loop
vertex 0.179112 -0.514398 -0.290554
vertex 0.509201 -0.136702 -0.282307
vertex 0.394163 0.151218 -0.422176
endloop
endfacet
facet normal -0.06726621619800002 0.05510285121900001 0.168753493773
outer loop
vertex 0.179112 -0.514398 -0.290554
vertex 0.394163 0.151218 -0.422176
vertex 0.151548 0.185001 -0.529915
endloop
endfacet
facet normal -0.088564048722 0.072549361656 0.22218377443199996
outer loop
vertex 0.179112 -0.514398 -0.290554
vertex 0.151548 0.185001 -0.529915
vertex -0.151548 -0.185001 -0.529915
endloop
endfacet
facet normal -0.019742530871999994 0.01617244579800002 0.04952862156600001
outer loop
vertex 0.179112 -0.514398 -0.290554
vertex -0.151548 -0.185001 -0.529915
vertex -0.055686 -0.430284 -0.411612
endloop
endfacet
facet normal 0.078887139772 -0.114401711844 -0.017396257395999995
outer loop
vertex -0.430396 0.334808 -0.249032
vertex -0.179112 0.514398 -0.290554
vertex -0.011612 0.564879 0.137037
endloop
endfacet
facet normal 0.152445665296 -0.221076479825 -0.03361709618099999
outer loop
vertex -0.430396 0.334808 -0.249032
vertex -0.011612 0.564879 0.137037
vertex -0.344233 0.301871 0.358301
endloop
endfacet
facet normal 0.07888682245800001 -0.114402128621 -0.017396038407
outer loop
vertex -0.430396 0.334808 -0.249032
vertex -0.344233 0.301871 0.358301
vertex -0.586233 0.192482 -0.019732
endloop
endfacet
facet normal -0.07888682245800001 0.114402128621 -0.017396038407
outer loop
vertex 0.344233 -0.301871 0.358301
vertex 0.586233 -0.192482 -0.019732
vertex 0.430396 -0.334808 -0.249032
endloop
endfacet
facet normal -0.10770332335600002 0.15619072565800002 -0.023750554278
outer loop
vertex 0.344233 -0.301871 0.358301
vertex 0.430396 -0.334808 -0.249032
vertex 0.179112 -0.514398 -0.290554
endloop
endfacet
facet normal -0.12362948171200001 0.17928746601099999 -0.027262799299000003
outer loop
vertex 0.344233 -0.301871 0.358301
vertex 0.179112 -0.514398 -0.290554
vertex 0.011612 -0.564879 0.137037
endloop
endfacet
facet normal 0.04103034655399999 -0.0028079635560000014 -0.025453440202
outer loop
vertex -0.344233 0.301871 0.358301
vertex -0.248355 0.095223 0.535651
vertex -0.272269 -0.118712 0.520703
endloop
endfacet
facet normal 0.07779838098900002 -0.005324240826000007 -0.04826275457700002
outer loop
vertex -0.344233 0.301871 0.358301
vertex -0.272269 -0.118712 0.520703
vertex -0.361372 -0.268614 0.393608
endloop
endfacet
facet normal 0.13835213227100002 -0.009468263226000008 -0.08582674686299999
outer loop
vertex -0.344233 0.301871 0.358301
vertex -0.361372 -0.268614 0.393608
vertex -0.510787 -0.234322 0.148969
endloop
endfacet
facet normal 0.179800027413 -0.012304459897999998 -0.11153979563399999
outer loop
vertex -0.344233 0.301871 0.358301
vertex -0.510787 -0.234322 0.148969
vertex -0.587567 0.188189 -0.021408
endloop
endfacet
facet normal 0.0014395597049999959 -9.87040219999763e-05 -0.0008929810740000051
outer loop
vertex -0.344233 0.301871 0.358301
vertex -0.587567 0.188189 -0.021408
vertex -0.586233 0.192482 -0.019732
endloop
endfacet
facet normal 0.100740338857 0.02825999449099999 0.024682412033
outer loop
vertex -0.587567 0.188189 -0.021408
vertex -0.510787 -0.234322 0.148969
vertex -0.417404 -0.426728 -0.011876
endloop
endfacet
facet normal 0.16297868739299998 0.04571929038699999 0.039931441884999974
outer loop
vertex -0.587567 0.188189 -0.021408
vertex -0.417404 -0.426728 -0.011876
vertex -0.364663 -0.382652 -0.277601
endloop
endfacet
facet normal 0.14182110833699996 0.03978403929999998 0.03474775483599998
outer loop
vertex -0.587567 0.188189 -0.021408
vertex -0.364663 -0.382652 -0.277601
vertex -0.394163 -0.151218 -0.422176
endloop
endfacet
facet normal 0.06791660487699999 0.019052325108000014 0.01664017721399998
outer loop
vertex -0.587567 0.188189 -0.021408
vertex -0.394163 -0.151218 -0.422176
vertex -0.509201 0.136702 -0.282307
endloop
endfacet
facet normal -0.06791660487699998 -0.01905232510800001 0.01664017721399997
outer loop
vertex 0.394163 0.151218 -0.422176
vertex 0.509201 -0.136702 -0.282307
vertex 0.587567 -0.188189 -0.021408
endloop
endfacet
facet normal -0.227156034887 -0.06372256034799999 0.05565564798400001
outer loop
vertex 0.394163 0.151218 -0.422176
vertex 0.587567 -0.188189 -0.021408
vertex 0.510787 0.234322 0.148969
endloop
endfacet
facet normal -0.12325858775000001 -0.034576846254999995 0.030199658176000004
outer loop
vertex 0.394163 0.151218 -0.422176
vertex 0.510787 0.234322 0.148969
vertex 0.417404 0.426728 -0.011876
endloop
endfacet
facet normal -0.05512551195 -0.01546391757499999 0.013506302593999996
outer loop
vertex 0.394163 0.151218 -0.422176
vertex 0.417404 0.426728 -0.011876
vertex 0.364663 0.382652 -0.277601
endloop
endfacet
facet normal 0.025272945485 0.102154173751 0.021960385541
outer loop
vertex -0.246149 -0.511456 0.185169
vertex 0.011612 -0.564879 0.137037
vertex 0.179112 -0.514398 -0.290554
endloop
endfacet
facet normal 0.040371117058000006 0.163180055092 0.035079628038000014
outer loop
vertex -0.246149 -0.511456 0.185169
vertex 0.179112 -0.514398 -0.290554
vertex -0.055686 -0.430284 -0.411612
endloop
endfacet
facet normal 0.039303813484 0.15886746594400003 0.034152414660000005
outer loop
vertex -0.246149 -0.511456 0.185169
vertex -0.055686 -0.430284 -0.411612
vertex -0.364663 -0.382652 -0.277601
endloop
endfacet
facet normal 0.01382939238000001 0.05589908521999999 0.012016874827999999
outer loop
vertex -0.246149 -0.511456 0.185169
vertex -0.364663 -0.382652 -0.277601
vertex -0.417404 -0.426728 -0.011876
endloop
endfacet
facet normal -0.013829392380000007 -0.05589908522 0.012016874828
outer loop
vertex 0.364663 0.382652 -0.277601
vertex 0.417404 0.426728 -0.011876
vertex 0.246149 0.511456 0.185169
endloop
endfacet
facet normal -0.030922155838000003 -0.12498837381800001 0.02686927442200001
outer loop
vertex 0.364663 0.382652 -0.277601
vertex 0.246149 0.511456 0.185169
vertex -0.011612 0.564879 0.137037
endloop
endfacet
facet normal -0.056987284279 -0.23034366852499996 0.049517760774999996
outer loop
vertex 0.364663 0.382652 -0.277601
vertex -0.011612 0.564879 0.137037
vertex -0.179112 0.514398 -0.290554
endloop
endfacet
facet normal -0.017038435910000004 -0.068869652444 0.014805393042
outer loop
vertex 0.364663 0.382652 -0.277601
vertex -0.179112 0.514398 -0.290554
vertex 0.055686 0.430284 -0.411612
endloop
endfacet
facet normal 0.030423175386000013 0.039030158363000014 0.05627082909899999
outer loop
vertex -0.055686 -0.430284 -0.411612
vertex -0.151548 -0.185001 -0.529915
vertex -0.394163 -0.151218 -0.422176
endloop
endfacet
facet normal 0.037901098174 0.048623674275 0.070102639018
outer loop
vertex -0.055686 -0.430284 -0.411612
vertex -0.394163 -0.151218 -0.422176
vertex -0.364663 -0.382652 -0.277601
endloop
endfacet
facet normal -0.038505628609 -0.049399468513000006 0.07122070670700001
outer loop
vertex 0.364663 0.382652 -0.277601
vertex 0.055686 0.430284 -0.411612
vertex 0.151548 0.185001 -0.529915
endloop
endfacet
facet normal -0.02981864495100001 -0.038254364125 0.05515276141
outer loop
vertex 0.364663 0.382652 -0.277601
vertex 0.151548 0.185001 -0.529915
vertex 0.394163 0.151218 -0.422176
endloop
endfacet
facet normal -0.065511336754 -0.058400165725 -0.03182529236599999
outer loop
vertex 0.361372 0.268614 0.393607
vertex 0.246149 0.511456 0.185169
vertex 0.417404 0.426728 -0.011876
endloop
endfacet
facet normal -0.052585515767999996 -0.04687768602899999 -0.025546052653999993
outer loop
vertex 0.361372 0.268614 0.393607
vertex 0.417404 0.426728 -0.011876
vertex 0.510787 0.234322 0.148969
endloop
endfacet
facet normal 0.066556414226 0.059331952682 -0.03233301031399998
outer loop
vertex -0.510787 -0.234322 0.148969
vertex -0.361372 -0.268614 0.393608
vertex -0.246149 -0.511456 0.185169
endloop
endfacet
facet normal 0.051540715429999995 0.045946163709999994 -0.025038334705999997
outer loop
vertex -0.510787 -0.234322 0.148969
vertex -0.246149 -0.511456 0.185169
vertex -0.417404 -0.426728 -0.011876
endloop
endfacet
facet normal -0.0012229232760000014 0.0005670690119999877 0.0004791453570000062
outer loop
vertex 0.430396 -0.334808 -0.249032
vertex 0.586233 -0.192482 -0.019732
vertex 0.587567 -0.188189 -0.021408
endloop
endfacet
facet normal -0.04997242736899999 0.023167774344999996 0.01958220783099999
outer loop
vertex 0.430396 -0.334808 -0.249032
vertex 0.587567 -0.188189 -0.021408
vertex 0.509201 -0.136702 -0.282307
endloop
endfacet
facet normal 0.05016160345000001 -0.023255462675 0.019656244291999997
outer loop
vertex -0.509201 0.136702 -0.282307
vertex -0.430396 0.334808 -0.249032
vertex -0.586233 0.192482 -0.019732
endloop
endfacet
facet normal 0.0010337471949999968 -0.0004793806819999892 0.0004051088959999968
outer loop
vertex -0.509201 0.136702 -0.282307
vertex -0.586233 0.192482 -0.019732
vertex -0.587567 0.188189 -0.021408
endloop
endfacet
facet normal 0.01893415576799999 0.0017623378199999908 -0.05551358994899999
outer loop
vertex 0.000222 -0.002388 0.617335
vertex -0.272269 -0.118712 0.520703
vertex -0.248355 0.095223 0.535651
endloop
endfacet
facet normal 0.00039012278399999987 3.6267695999999994e-05 -0.001143864468
outer loop
vertex 0.000222 -0.002388 0.617335
vertex -0.248355 0.095223 0.535651
vertex -0.000222 0.002388 0.617335
endloop
endfacet
facet normal -0.01893415576799999 -0.0017623378199999908 -0.05551358994899999
outer loop
vertex -0.000222 0.002388 0.617335
vertex 0.272269 0.118712 0.520703
vertex 0.248355 -0.095223 0.535651
endloop
endfacet
facet normal -0.00039012278399999987 -3.6267695999999994e-05 -0.001143864468
outer loop
vertex -0.000222 0.002388 0.617335
vertex 0.248355 -0.095223 0.535651
vertex 0.000222 -0.002388 0.617335
endloop
endfacet
endsolid
